<?xml version="1.0" encoding="UTF-8"?>
<svg id="Layer_1" data-name="Layer 1" xmlns="http://www.w3.org/2000/svg" viewBox="0 0 1117.11 1032.02">
  <defs>
    <style>
      .cls-1 {
        stroke-width: 0px;
      }
    </style>
  </defs>
  <path class="cls-1" d="M1096.33,457.13C891.29,33.05,553.02.03,553.02.03c0,0-201.16-11.66-504.02,400.53-113.78,154.85,6.4,165.65,5.28,186.25-19.54,361.83-79.66,395.03,90.56,410.24,230.69,20.62,290.91,59.55,308.1,13.19,27.48-74.12-11.13-218.82,88.4-215.39,154.88,5.34,79.56,213.79,143.17,224.2s356.62,14.96,377.27-53.32c39.11-129.26,7.21-48.83,7.21-374.44,0-51.56,86.7-11.38,27.33-134.16ZM381.86,522.52c-43.91,0-79.5-35.59-79.5-79.5s35.59-79.5,79.5-79.5,79.5,35.59,79.5,79.5-35.59,79.5-79.5,79.5Z"/>
</svg>