<?xml version="1.0" encoding="UTF-8"?>
<svg id="Layer_1" data-name="Layer 1" xmlns="http://www.w3.org/2000/svg" xmlns:xlink="http://www.w3.org/1999/xlink" viewBox="0 0 325.58 346.92">
  <defs>
    <style>
      .cls-1 {
        fill: url(#linear-gradient);
      }

      .cls-1, .cls-2, .cls-3, .cls-4, .cls-5, .cls-6, .cls-7, .cls-8, .cls-9 {
        stroke-width: 0px;
      }

      .cls-2 {
        fill: url(#linear-gradient-4);
      }

      .cls-3 {
        fill: url(#linear-gradient-2);
      }

      .cls-4 {
        fill: url(#linear-gradient-3);
      }

      .cls-5 {
        fill: url(#linear-gradient-8);
      }

      .cls-6 {
        fill: url(#linear-gradient-9);
      }

      .cls-7 {
        fill: url(#linear-gradient-7);
      }

      .cls-8 {
        fill: url(#linear-gradient-5);
      }

      .cls-9 {
        fill: url(#linear-gradient-6);
      }
    </style>
    <linearGradient id="linear-gradient" x1="-533.6" y1="134.42" x2="-532.84" y2="135.41" gradientTransform="translate(123955.02 31784.67) scale(232.31 -234.31)" gradientUnits="userSpaceOnUse">
      <stop offset="0" stop-color="#f45a14"/>
      <stop offset=".5" stop-color="#f4832d"/>
      <stop offset="1" stop-color="#ffa62f"/>
    </linearGradient>
    <linearGradient id="linear-gradient-2" x1="-532.52" y1="133.24" x2="-531.76" y2="134.23" gradientTransform="translate(89983.61 23016.25) scale(168.71 -170.08)" gradientUnits="userSpaceOnUse">
      <stop offset="0" stop-color="#f45a14"/>
      <stop offset=".5" stop-color="#f4832d"/>
      <stop offset="1" stop-color="#ffa62f"/>
    </linearGradient>
    <linearGradient id="linear-gradient-3" x1="-532.07" y1="127.73" x2="-531.3" y2="128.72" gradientTransform="translate(74040.87 8996.7) scale(139.17 -67.92)" gradientUnits="userSpaceOnUse">
      <stop offset="0" stop-color="#f45a14"/>
      <stop offset=".5" stop-color="#f4832d"/>
      <stop offset="1" stop-color="#ffa62f"/>
    </linearGradient>
    <linearGradient id="linear-gradient-4" x1="-527.22" y1="132.52" x2="-526.46" y2="133.51" gradientTransform="translate(33179.12 18435.44) scale(62.52 -137.75)" gradientUnits="userSpaceOnUse">
      <stop offset="0" stop-color="#f45a14"/>
      <stop offset=".5" stop-color="#f4832d"/>
      <stop offset="1" stop-color="#ffa62f"/>
    </linearGradient>
    <linearGradient id="linear-gradient-5" x1="-475.64" y1="65.83" x2="-474.87" y2="66.82" gradientTransform="translate(4481.28 618.28) scale(9.11 -9.03)" gradientUnits="userSpaceOnUse">
      <stop offset="0" stop-color="#f45a14"/>
      <stop offset=".5" stop-color="#f4832d"/>
      <stop offset="1" stop-color="#ffa62f"/>
    </linearGradient>
    <linearGradient id="linear-gradient-6" x1="-479.31" y1="60.51" x2="-478.54" y2="61.5" gradientTransform="translate(4736.14 842.99) scale(9.7 -8.4)" gradientUnits="userSpaceOnUse">
      <stop offset="0" stop-color="#f45a14"/>
      <stop offset=".5" stop-color="#f4832d"/>
      <stop offset="1" stop-color="#ffa62f"/>
    </linearGradient>
    <linearGradient id="linear-gradient-7" x1="-472.93" y1="60.44" x2="-472.16" y2="61.43" gradientTransform="translate(4159.78 542.56) scale(8.72 -8.39)" gradientUnits="userSpaceOnUse">
      <stop offset="0" stop-color="#f45a14"/>
      <stop offset=".5" stop-color="#f4832d"/>
      <stop offset="1" stop-color="#ffa62f"/>
    </linearGradient>
    <linearGradient id="linear-gradient-8" x1="-463.53" y1="52.41" x2="-462.77" y2="53.4" gradientTransform="translate(3821.53 520.79) scale(7.59 -7.6)" gradientUnits="userSpaceOnUse">
      <stop offset="0" stop-color="#f45a14"/>
      <stop offset=".5" stop-color="#f4832d"/>
      <stop offset="1" stop-color="#ffa62f"/>
    </linearGradient>
    <linearGradient id="linear-gradient-9" x1="-529.73" y1="129.86" x2="-528.96" y2="130.85" gradientTransform="translate(47380.42 11819.14) scale(89.18 -88.89)" gradientUnits="userSpaceOnUse">
      <stop offset="0" stop-color="#f45a14"/>
      <stop offset=".5" stop-color="#f4832d"/>
      <stop offset="1" stop-color="#ffa62f"/>
    </linearGradient>
  </defs>
  <g id="V3WGP">
    <path id="Path_9" data-name="Path 9" class="cls-1" d="M126.1,42.04c40.76-8.4,84.52,2.09,116.57,28.77,11.79,9.46-1.27,27.29-13.68,18.94-6.07-4.91-12.56-9.28-19.39-13.06C120.53,28.72,16.52,110.66,41.9,208.63c2.75,10.03,6.3,19.8,11.8,28.75,3.48,5.92,7.41,11.55,11.78,16.84,6.49,7.28.31,19.93-9.44,19.28-13.45-1.54-25.89-30.7-31.21-42.27-8.4-20.21-11.14-42.23-9.32-64.02,3.99-60.54,51.39-113.33,110.59-125.16Z"/>
    <path id="Path_10" data-name="Path 10" class="cls-3" d="M222.53,273.57c26.77-19.45,44-49.36,47.38-82.28,1.04-9.67.44-19.21-.37-28.75-.67-7.77,4.43-12.56,10.12-13.31,6.56-.71,12.45,4.04,13.16,10.6,0,.09.02.18.03.27,2.31,14.3,1.68,28.56-.83,42.82-2.81,16.51-8.55,32.39-16.95,46.88-25.47,44.58-76.61,72.23-127.79,69.21-27.76,2.55-27.22-24.84-7.91-24.24,29.08,3.81,59.5-3.71,83.16-21.22Z"/>
    <path id="Path_11" data-name="Path 11" class="cls-4" d="M62.01,315.75c-30.17,10.71-52.4-3.93-48.8-36.69,1.19-7.88-.56-23.58,9.92-24.71,3.28-.11,6.28,1.83,7.55,4.86,1.08,2.22.65,4.49.2,6.84-1.78,9.06-3.48,18.1-1.32,27.4,5.33,20.49,36.52,3.56,49.41-.35,22.26-8.95,42.35-22.66,59.49-39.41,6.96-7.37,18.78,4,10.98,11.09-6.68,6.86-13.91,13.17-21.61,18.86-19.74,14.86-42.16,25.18-65.81,32.14v-.03Z"/>
    <path id="Path_12" data-name="Path 12" class="cls-2" d="M228.82,161.59c14.95-14.93,26.88-32.6,35.13-52.05,5.17-14.03,17-50.74-2.75-55.42-8.41-1.99-16.84.05-25.09,2.06-4.78,1.16-8.81-1.35-9.77-6.15-1.59-11.53,14.81-10.34,22.43-12.17,10.03-1.11,19.76.03,28.15,6.21,25.23,21.39,4.25,69.33-9.04,92.94-5.46,8.04-28.16,46.4-38.67,36.65-3.7-3.32-3.62-8.23-.39-12.07h0Z"/>
    <path id="Path_13" data-name="Path 13" class="cls-8" d="M150.34,21.97c-5.96-3.04-1.88-10.14,3.44-8.01,5.02,1.9,2.65,11.09-3.44,8.01Z"/>
    <path id="Path_14" data-name="Path 14" class="cls-9" d="M90.62,324.95c4.77.28,6.46,6.63,1.91,8.05-7.69,2.37-10.14-8.09-1.91-8.05Z"/>
    <path id="Path_15" data-name="Path 15" class="cls-7" d="M41.06,34c-4.83.84-6.16-6.15-1.78-7.95,5.61-2.3,9.39,6.62,1.78,7.95Z"/>
    <ellipse id="Ellipse_2" data-name="Ellipse 2" class="cls-5" cx="308.95" cy="117.66" rx="3.79" ry="3.8"/>
    <path id="Path_16" data-name="Path 16" class="cls-6" d="M225.78,199.21c2.03-3.66,3.7-14.74.15-21.24-.19-.11-.41-.2-.63-.31-.09-.21-.19-.42-.29-.63-6.42-3.68-17.51-2.18-21.21-.21-.79.42-19.06,15.76-25.72,22.27-1.44,1.48-3.53,2.13-5.55,1.7-7.54-1.02-15.16-1.49-22.68-2.86-2.87-.43-5.66,1.17-6.73,3.87-1.82,5.3-7.36,11.68-2.07,16.72,1.52,1.38,2.96,2.84,4.33,4.37,5.61,6.6,6.57,5.4,3.5,9.76-1.67,2.37-2.1,4.87-.65,7.34,1.75,2.75,3.69,5.36,5.81,7.84,2.43,2.16,5.01,4.15,7.72,5.95,2.44,1.49,4.95,1.1,7.35-.52,4.42-3.01,3.21-2.06,9.7,3.68,1.51,1.39,2.95,2.87,4.3,4.41,4.94,5.38,11.4-.07,16.72-1.79,2.71-1.03,4.36-3.8,3.97-6.68-1.26-7.54-1.59-15.18-2.48-22.75-.39-2.03.29-4.11,1.79-5.52,6.61-6.57,22.24-24.6,22.66-25.38l.03-.03ZM173.14,234.97c-1.9,2.9-4.35,5.4-7.22,7.34-1.23.75-2.83-.67-4.25-1.91-1.24-1.03-2.67-3.13-1.9-4.35,1.98-2.85,4.52-5.27,7.45-7.12,2.32-1.26,4.83-2.14,7.43-2.62.56-.12,1.1.24,1.22.79.03.15.03.3,0,.45-.51,2.6-1.42,5.1-2.71,7.41h0ZM192.22,220.27c-6.12,8.8,3.18,21.28-.96,31.14-4.01,1.28-7.52-5.28-10.9-7.37,5.38-4.62,8.99-20.63,4.47-26.81-6.1-4.62-21.85-.99-26.55,4.32-2.03-3.42-8.52-7.05-7.17-11.04,9.92-3.99,22.22,5.52,31.1-.44,8.59-7.17,19.48-18.61,28.22-25.08,2.94-.95,5.01-.92,6.14,0-.09.08-.17.16-.21.19-.04.04-.09.08-.13.11.33.07.65.2.93.38.17.29.3.62.36.95.04-.04.08-.09.12-.13.04-.04.11-.12.2-.21.9,1.16.88,3.24-.12,6.15-6.61,8.64-18.2,19.36-25.51,27.84h0Z"/>
  </g>
</svg>