<?xml version="1.0" encoding="UTF-8"?>
<svg id="Layer_1" data-name="Layer 1" xmlns="http://www.w3.org/2000/svg" viewBox="0 0 796 854.22">
  <defs>
    <style>
      .cls-1 {
        stroke-width: 0px;
      }
    </style>
  </defs>
  <path class="cls-1" d="M388.06,359.46c39.21,1.83,205.74-242.3,283.75-331.21,62.56-71.31,167.09,4.23,105.36,95.32-11.19,16.51-253.96,303.8-253.96,344.65s187.5,195.5,236.41,264.02c38.4,53.8-35.43,135.38-89.7,103.77-28.38-16.53-221.19-226.78-264.39-230.17-61.06-4.78-261.93,211.29-311.58,224.83-89.58,24.42-127.27-76.27-58.53-124.12,0,0,232.7-200.9,232.7-249.22,0-36.16-194.01-232.03-245.25-311.56C-34.5,56.77,57.32-28.53,138.41,56.9c57.31,60.37,204.1,300.43,249.65,302.56Z"/>
</svg>